<?xml version="1.0" standalone="no"?>
<!DOCTYPE svg PUBLIC "-//W3C//DTD SVG 20010904//EN"
 "http://www.w3.org/TR/2001/REC-SVG-20010904/DTD/svg10.dtd">
<svg version="1.0" xmlns="http://www.w3.org/2000/svg"
 width="225.000000pt" height="225.000000pt" viewBox="0 0 225.000000 225.000000"
 preserveAspectRatio="xMidYMid meet">

<g transform="translate(0.000000,225.000000) scale(0.100000,-0.100000)"
fill="#000000" stroke="none">
<path d="M495 2095 c-39 -7 -93 -24 -122 -38 -67 -35 -145 -111 -178 -176 -51
-102 -55 -154 -55 -754 0 -335 4 -578 11 -617 26 -166 134 -294 289 -346 50
-17 106 -19 639 -22 388 -2 608 1 655 8 198 30 336 168 366 366 7 47 10 267 8
655 -3 510 -6 590 -20 632 -23 67 -80 158 -95 153 -7 -3 -15 0 -19 6 -4 7 -3
8 4 4 29 -17 8 15 -25 42 -59 46 -118 72 -200 88 -102 19 -1151 19 -1258 -1z
m818 -131 c292 -61 538 -288 632 -584 35 -109 46 -314 22 -426 -35 -162 -120
-319 -236 -434 -105 -105 -221 -174 -366 -220 -90 -28 -286 -38 -389 -20 -310
55 -562 273 -668 580 -32 93 -33 98 -32 265 0 159 2 176 28 255 111 339 385
560 746 604 53 6 187 -4 263 -20z"/>
<path d="M930 1880 c-480 -124 -724 -661 -503 -1105 151 -303 501 -482 826
-421 180 34 299 97 427 226 98 98 166 215 202 347 28 108 28 287 -1 396 -72
271 -291 487 -565 557 -106 27 -280 27 -386 0z m313 -447 c130 -220 167 -286
167 -298 0 -8 -63 -45 -76 -45 -15 0 -274 510 -274 538 0 19 12 30 36 31 7 1
72 -101 147 -226z m-165 -3 c13 -12 22 -33 22 -50 l0 -29 -60 32 c-59 32 -60
32 -39 50 28 22 50 22 77 -3z m-69 -69 c61 -31 67 -45 45 -91 -23 -48 -41 -50
-100 -12 -47 29 -53 42 -29 65 8 8 11 17 8 21 -4 3 -1 6 6 6 7 0 10 4 7 9 -5
8 3 15 22 20 1 1 20 -8 41 -18z m-52 -159 l42 -18 -80 -140 c-48 -85 -85 -138
-94 -138 -8 1 -35 14 -59 28 l-46 27 33 57 c125 222 131 231 147 217 8 -8 34
-22 57 -33z m-157 -18 c0 -3 -25 -51 -56 -105 -47 -82 -60 -99 -80 -99 -24 0
-24 1 -24 105 l0 105 80 0 c44 0 80 -3 80 -6z m487 -96 c29 -56 51 -103 49
-105 -2 -2 -94 -2 -204 -1 l-201 3 57 102 57 102 95 0 95 1 52 -102z m323 -4
l0 -105 -36 3 c-35 3 -38 7 -91 106 l-55 102 91 0 91 0 0 -106z m-150 -47 c13
-28 26 -55 28 -59 2 -4 -13 -16 -34 -25 -22 -11 -39 -14 -41 -8 -2 6 -16 30
-32 55 l-28 45 36 22 c20 11 38 22 41 22 3 1 16 -23 30 -52z m98 -162 c23 -35
42 -74 42 -86 0 -50 -61 -77 -93 -41 -15 17 -67 127 -67 142 0 8 59 48 70 49
3 0 24 -29 48 -64z m-832 35 c5 -5 27 -18 48 -28 l39 -19 -64 -51 c-34 -28
-64 -50 -66 -48 -6 6 19 156 26 156 4 0 11 -4 17 -10z"/>
</g>
</svg>
