<?xml version="1.0" standalone="no"?>
<!DOCTYPE svg PUBLIC "-//W3C//DTD SVG 20010904//EN"
 "http://www.w3.org/TR/2001/REC-SVG-20010904/DTD/svg10.dtd">
<svg version="1.0" xmlns="http://www.w3.org/2000/svg"
 width="225.000000pt" height="225.000000pt" viewBox="0 0 225.000000 225.000000"
 preserveAspectRatio="xMidYMid meet">

<g transform="translate(0.000000,225.000000) scale(0.100000,-0.100000)"
fill="#000000" stroke="none">
<path d="M0 1125 l0 -1125 1125 0 1125 0 0 1125 0 1125 -1125 0 -1125 0 0
-1125z m1722 568 l117 -102 -520 -603 c-287 -332 -528 -610 -537 -620 -16 -15
-28 -7 -171 118 -212 183 -197 166 -175 198 11 14 23 26 28 26 4 0 45 -31 89
-70 44 -38 83 -70 87 -70 4 0 17 11 30 25 l24 26 -49 42 c-28 23 -68 59 -90
79 l-40 37 27 28 27 27 24 -22 c30 -28 38 -27 61 4 18 25 18 26 -8 53 l-25 26
23 30 23 29 59 -52 59 -52 23 26 c12 14 22 29 22 33 0 4 -25 29 -56 55 l-55
48 27 29 28 29 26 -25 26 -25 27 28 27 28 -25 24 c-30 29 -31 37 -4 66 l22 23
59 -51 59 -52 24 30 24 29 -56 51 -57 51 20 26 c10 14 23 27 28 27 5 0 39 -26
75 -57 36 -31 74 -64 84 -72 16 -13 20 -12 45 12 l27 27 -55 48 c-30 26 -71
61 -90 79 l-35 32 27 27 27 28 24 -22 c30 -28 38 -27 61 4 18 25 18 26 -8 53
l-25 26 23 30 23 29 60 -52 c56 -48 61 -50 75 -34 34 39 32 44 -25 96 l-57 51
26 29 25 29 28 -27 27 -26 27 28 27 28 -25 24 c-31 29 -31 37 -4 67 l22 22 59
-51 60 -51 24 29 24 29 -57 51 -56 51 23 31 23 31 61 -52 c34 -29 114 -99 178
-154z"/>
</g>
</svg>
