<?xml version="1.0" standalone="no"?>
<!DOCTYPE svg PUBLIC "-//W3C//DTD SVG 20010904//EN"
 "http://www.w3.org/TR/2001/REC-SVG-20010904/DTD/svg10.dtd">
<svg version="1.0" xmlns="http://www.w3.org/2000/svg"
 width="259.000000pt" height="194.000000pt" viewBox="0 0 259.000000 194.000000"
 preserveAspectRatio="xMidYMid meet">

<g transform="translate(0.000000,194.000000) scale(0.100000,-0.100000)"
fill="#000000" stroke="none">
<path d="M750 1786 c-180 -40 -286 -185 -304 -416 -9 -120 -10 -962 -1 -995 4
-16 16 -46 26 -66 10 -20 15 -40 11 -44 -4 -5 -1 -5 6 -1 6 4 12 2 12 -4 0
-12 60 -73 60 -62 0 4 6 0 13 -9 7 -9 28 -24 47 -34 19 -10 38 -22 41 -26 10
-16 126 -19 619 -20 328 -1 494 3 513 10 16 6 43 11 60 12 26 0 28 2 12 8 -17
7 -16 9 10 15 17 4 30 6 30 4 0 -2 7 3 15 10 8 7 34 26 57 43 56 40 118 135
135 207 10 43 13 178 13 552 0 591 -2 603 -98 707 -55 59 -110 91 -193 108
-91 19 -998 20 -1084 1z m625 -206 c64 -39 65 -49 65 -447 l0 -360 26 -24
c118 -110 84 -319 -63 -390 -57 -28 -149 -30 -206 -5 -154 67 -194 283 -73
395 l26 24 0 360 c0 391 2 406 57 443 59 38 111 39 168 4z"/>
<path d="M1243 1560 c-35 -14 -64 -69 -61 -115 3 -38 4 -40 41 -43 54 -5 51
-32 -4 -32 l-40 0 3 -47 c3 -48 3 -48 41 -51 49 -4 44 -26 -7 -30 l-37 -3 4
-42 c4 -40 5 -42 43 -47 53 -7 54 -34 2 -38 -38 -3 -38 -4 -38 -48 0 -43 1
-44 33 -44 38 0 48 -6 40 -26 -3 -8 -19 -14 -38 -14 -32 0 -33 -2 -37 -45 l-3
-44 40 -3 c57 -4 55 -32 -1 -36 l-42 -3 4 -39 c3 -34 -2 -45 -37 -86 -51 -59
-59 -81 -59 -152 0 -112 78 -193 194 -200 75 -5 127 17 174 74 72 87 62 204
-24 290 l-34 34 5 353 c4 320 3 356 -13 387 -26 54 -89 74 -149 50z"/>
</g>
</svg>
