<?xml version="1.0" standalone="no"?>
<!DOCTYPE svg PUBLIC "-//W3C//DTD SVG 20010904//EN"
 "http://www.w3.org/TR/2001/REC-SVG-20010904/DTD/svg10.dtd">
<svg version="1.0" xmlns="http://www.w3.org/2000/svg"
 width="225.000000pt" height="225.000000pt" viewBox="0 0 225.000000 225.000000"
 preserveAspectRatio="xMidYMid meet">

<g transform="translate(0.000000,225.000000) scale(0.100000,-0.100000)"
fill="#000000" stroke="none">
<path d="M1000 1989 c-309 -34 -602 -201 -788 -448 -115 -152 -204 -367 -206
-494 -1 -67 0 -69 36 -103 34 -31 43 -34 98 -34 l60 0 0 43 c0 74 39 209 90
312 120 245 338 425 600 497 72 19 109 23 240 23 131 0 167 -4 234 -23 132
-38 273 -110 347 -179 l27 -24 45 32 c41 28 50 31 71 21 41 -18 43 -55 8 -103
l-31 -41 40 -51 c51 -64 133 -232 154 -315 9 -35 19 -92 22 -128 l6 -64 59 0
c53 0 62 3 96 34 36 33 37 37 36 98 -3 112 -75 302 -169 443 -236 355 -653
550 -1075 504z"/>
<path d="M953 1665 c-199 -46 -386 -172 -502 -340 -105 -151 -146 -282 -145
-465 0 -132 13 -200 58 -312 54 -133 160 -270 224 -288 25 -8 207 -10 559 -8
596 3 537 -6 625 103 191 235 229 595 93 866 -33 65 -90 149 -100 146 -5 -2
-80 -99 -166 -216 l-157 -212 -4 -92 c-3 -78 -8 -100 -33 -145 -99 -181 -340
-221 -498 -83 -20 18 -51 61 -68 97 -30 60 -31 69 -27 151 5 104 26 153 94
219 59 57 132 84 228 84 l72 0 222 162 222 163 -22 18 c-58 45 -161 99 -248
128 -85 29 -109 32 -230 35 -91 2 -155 -1 -197 -11z"/>
<path d="M1058 1054 c-61 -19 -122 -86 -138 -152 -36 -153 108 -293 259 -252
64 17 128 80 147 147 13 45 14 62 3 105 -16 69 -84 139 -151 156 -57 14 -61
14 -120 -4z"/>
</g>
</svg>
