<?xml version="1.0" standalone="no"?>
<!DOCTYPE svg PUBLIC "-//W3C//DTD SVG 20010904//EN"
 "http://www.w3.org/TR/2001/REC-SVG-20010904/DTD/svg10.dtd">
<svg version="1.0" xmlns="http://www.w3.org/2000/svg"
 width="216.000000pt" height="210.000000pt" viewBox="0 0 216.000000 210.000000"
 preserveAspectRatio="xMidYMid meet">

<g transform="translate(0.000000,210.000000) scale(0.100000,-0.100000)"
fill="#000000" stroke="none">
<path d="M967 1503 c-167 -254 -268 -441 -307 -572 -48 -158 -9 -313 110 -432
63 -63 113 -92 197 -114 210 -55 417 43 515 243 27 54 33 79 36 152 5 104 -13
170 -85 318 -79 162 -331 562 -354 562 -5 0 -55 -71 -112 -157z m93 -523 l0
-279 138 -3 137 -3 3 -62 3 -63 -216 0 -215 0 0 25 c0 23 4 25 40 25 33 0 40
3 40 20 0 17 -7 20 -40 20 -39 0 -40 1 -40 35 0 33 2 35 35 35 28 0 35 4 35
20 0 16 -7 20 -35 20 -33 0 -35 2 -35 35 0 34 1 35 40 35 33 0 40 3 40 20 0
17 -7 20 -40 20 -39 0 -40 1 -40 35 0 33 2 35 35 35 28 0 35 4 35 20 0 16 -7
20 -35 20 -33 0 -35 2 -35 35 0 34 1 35 40 35 33 0 40 3 40 20 0 17 -7 20 -40
20 -39 0 -40 1 -40 35 0 33 2 35 35 35 28 0 35 4 35 20 0 16 -7 20 -35 20 -31
0 -35 3 -35 25 0 24 2 25 75 25 l75 0 0 -280z"/>
</g>
</svg>
