<?xml version="1.0" standalone="no"?>
<!DOCTYPE svg PUBLIC "-//W3C//DTD SVG 20010904//EN"
 "http://www.w3.org/TR/2001/REC-SVG-20010904/DTD/svg10.dtd">
<svg version="1.0" xmlns="http://www.w3.org/2000/svg"
 width="218.000000pt" height="231.000000pt" viewBox="0 0 218.000000 231.000000"
 preserveAspectRatio="xMidYMid meet">

<g transform="translate(0.000000,231.000000) scale(0.100000,-0.100000)"
fill="#000000" stroke="none">
<path d="M1021 1869 c-104 -31 -181 -134 -181 -245 l0 -44 -46 0 c-67 0 -112
-25 -134 -74 -11 -23 -62 -180 -115 -351 -53 -171 -100 -321 -104 -335 -4 -14
-4 -39 1 -57 17 -66 -9 -63 646 -63 406 0 600 3 614 11 11 6 26 26 34 44 12
30 12 40 0 77 -8 24 -53 169 -101 323 -47 154 -91 296 -97 315 -25 79 -68 110
-153 110 l-45 0 0 43 c0 167 -160 291 -319 246z m147 -41 c79 -24 136 -107
136 -198 -1 -30 -3 -62 -5 -70 -3 -12 10 -15 74 -16 64 -1 82 -4 99 -21 11
-12 40 -85 68 -174 26 -85 75 -242 109 -350 33 -108 61 -205 61 -215 0 -9 -7
-26 -17 -36 -15 -17 -47 -18 -601 -18 -531 0 -587 2 -604 17 -10 9 -18 25 -18
35 0 11 29 112 64 226 183 589 156 538 276 535 l80 -1 -8 26 c-23 85 12 185
85 236 63 44 116 50 201 24z"/>
<path d="M1043 1779 c-76 -22 -126 -116 -103 -193 43 -144 242 -152 295 -11
47 122 -65 241 -192 204z m133 -63 c30 -30 34 -40 34 -84 0 -40 -6 -57 -26
-81 -73 -88 -214 -38 -214 75 0 25 5 54 11 65 17 32 70 59 118 59 36 0 49 -6
77 -34z"/>
<path d="M759 1240 c-12 -3 -26 -12 -30 -20 -5 -8 -27 -89 -49 -179 -29 -120
-37 -169 -29 -182 9 -18 31 -19 439 -19 412 0 430 1 439 19 8 14 0 61 -31 188
-22 92 -47 174 -54 182 -10 11 -73 14 -338 15 -179 1 -335 -1 -347 -4z m703
-185 c20 -82 38 -158 38 -167 0 -17 -26 -18 -410 -18 -389 0 -410 1 -410 18 0
15 62 270 75 310 4 10 76 12 337 10 l332 -3 38 -150z"/>
<path d="M1186 1190 c-91 -29 -131 -133 -86 -226 26 -52 68 -74 142 -74 82 0
98 16 98 99 0 39 -5 72 -12 79 -17 17 -103 15 -118 -2 -18 -22 -8 -59 20 -73
24 -12 24 -13 3 -13 -44 0 -68 54 -43 101 9 15 22 19 63 19 29 0 58 5 65 12
16 16 15 53 -2 67 -18 15 -95 22 -130 11z m114 -45 c0 -12 -7 -15 -33 -10 -37
7 -84 -8 -103 -33 -20 -26 -17 -95 6 -124 20 -27 58 -39 91 -31 14 4 19 14 19
39 0 30 -3 34 -25 34 -16 0 -25 6 -25 16 0 12 9 14 38 12 l37 -3 3 -54 c4 -63
-3 -71 -68 -71 -63 0 -106 28 -120 80 -16 58 2 115 43 140 41 25 137 28 137 5z"/>
<path d="M870 1171 c-5 -11 -10 -70 -10 -131 0 -125 8 -150 48 -150 35 0 52
16 52 49 0 24 1 24 25 -12 32 -46 78 -52 97 -12 10 22 7 32 -25 80 -21 30 -37
57 -37 60 0 2 14 24 31 48 26 38 29 48 20 66 -15 27 -62 28 -86 1 l-18 -20
-14 20 c-19 26 -69 27 -83 1z m60 -65 l5 -48 40 50 c38 49 65 65 65 41 0 -6
-13 -27 -30 -46 -16 -18 -30 -38 -30 -44 0 -6 18 -36 40 -68 36 -54 40 -71 18
-71 -4 0 -24 25 -45 55 -20 31 -41 54 -47 52 -6 -2 -13 -25 -16 -52 -3 -27
-11 -50 -17 -53 -14 -4 -14 -3 -14 133 -1 113 -1 107 14 103 6 -3 14 -26 17
-52z"/>
<path d="M0 70 l0 -70 1090 0 1090 0 0 70 0 70 -1090 0 -1090 0 0 -70z m130
17 c0 -2 -12 -3 -27 -2 -20 0 -29 -6 -34 -25 l-7 -25 -1 27 c-1 32 25 51 51
37 10 -5 18 -11 18 -12z m50 -12 c0 6 5 3 10 -5 6 -10 10 -11 10 -2 0 6 4 12
9 12 5 0 8 -8 6 -17 -1 -10 -9 -16 -16 -14 -8 2 -25 3 -38 3 -17 0 -19 3 -10
9 11 7 11 9 -1 9 -13 0 -13 1 0 10 9 6 17 5 22 -3 4 -7 8 -7 8 -2z m240 -3 c0
-12 -8 -18 -27 -19 -26 -2 -27 -1 -5 7 12 5 22 14 22 20 0 5 2 10 5 10 3 0 5
-8 5 -18z m-174 0 c-3 -5 1 -9 9 -9 8 0 12 4 9 8 -2 5 20 8 49 7 43 -2 52 -4
42 -14 -17 -17 -51 -22 -48 -6 2 6 -2 12 -7 12 -5 0 -10 -4 -10 -10 0 -5 -13
-10 -29 -10 -30 0 -46 12 -34 24 9 9 25 7 19 -2z m224 -7 c0 -6 -10 -11 -22
-12 -13 0 -17 1 -9 4 11 5 11 7 0 14 -10 6 -7 8 9 6 12 0 22 -6 22 -12z m-363
-31 c-3 -3 -12 -4 -19 -1 -8 3 -5 6 6 6 11 1 17 -2 13 -5z"/>
</g>
</svg>
